<?xml version="1.0" encoding="utf-8"?>
<!-- Generator: Adobe Illustrator 16.0.0, SVG Export Plug-In . SVG Version: 6.00 Build 0)  -->
<!DOCTYPE svg PUBLIC "-//W3C//DTD SVG 1.1//EN" "http://www.w3.org/Graphics/SVG/1.1/DTD/svg11.dtd">
<svg version="1.1" id="Layer_1" xmlns="http://www.w3.org/2000/svg" xmlns:xlink="http://www.w3.org/1999/xlink" x="0px" y="0px"
	 width="960px" height="560px" viewBox="0 0 960 560" enable-background="new 0 0 960 560" xml:space="preserve">
<g opacity="0.8">
	<g>
		<path fill="#333333" d="M303.747,437.063c-0.998,0-2.011-0.228-2.965-0.712c-3.229-1.642-4.515-5.588-2.875-8.817l28.977-57.052
			c1.642-3.229,5.588-4.518,8.817-2.879c3.229,1.642,4.518,5.589,2.878,8.817l-28.977,57.055
			C308.443,435.75,306.139,437.063,303.747,437.063z"/>
	</g>
	<g>
		<path fill="#333333" d="M361.715,437.063c-2.389,0-4.694-1.313-5.852-3.588l-28.98-57.055c-1.639-3.229-0.351-7.176,2.878-8.817
			c3.229-1.639,7.178-0.351,8.817,2.879l28.977,57.052c1.642,3.229,0.354,7.176-2.875,8.817
			C363.729,436.835,362.715,437.063,361.715,437.063z"/>
	</g>
	<g>
		<path fill="#333333" d="M355.287,424.419h-45.101c-3.623,0-6.559-2.936-6.559-6.557c0-3.62,2.936-6.559,6.559-6.559h45.101
			c3.62,0,6.559,2.938,6.559,6.559C361.845,421.483,358.907,424.419,355.287,424.419z"/>
	</g>
	<g>
		<path fill="#333333" d="M730.812,437.063c-0.998,0-2.015-0.228-2.966-0.712c-3.226-1.642-4.515-5.588-2.875-8.817l28.979-57.052
			c1.637-3.229,5.586-4.518,8.814-2.879c3.229,1.642,4.518,5.589,2.876,8.817l-28.978,57.055
			C735.508,435.75,733.203,437.063,730.812,437.063z"/>
	</g>
	<g>
		<path fill="#333333" d="M788.779,436.396c-2.392,0-4.694-1.313-5.852-3.588l-28.978-57.055c-1.642-3.229-0.351-7.176,2.876-8.817
			c3.229-1.639,7.176-0.351,8.814,2.879l28.979,57.052c1.643,3.229,0.354,7.176-2.875,8.817
			C790.794,436.167,789.782,436.396,788.779,436.396z"/>
	</g>
	<g>
		<path fill="#333333" d="M782.352,424.419h-45.104c-3.621,0-6.557-2.936-6.557-6.557c0-3.62,2.936-6.559,6.557-6.559h45.104
			c3.62,0,6.556,2.938,6.556,6.559C788.907,421.483,785.972,424.419,782.352,424.419z"/>
	</g>
	<g>
		<path fill="#333333" d="M631.61,436.413c-3.553,0-6.434-2.881-6.434-6.437V373.99c0-3.555,2.881-6.437,6.434-6.437
			c3.556,0,6.437,2.882,6.437,6.437v55.986C638.047,433.532,635.166,436.413,631.61,436.413z"/>
	</g>
	<g>
		<path fill="#333333" d="M656.967,380.427H631.61c-3.553,0-6.434-2.881-6.434-6.437c0-3.555,2.881-6.437,6.434-6.437h25.356
			c3.556,0,6.437,2.882,6.437,6.437C663.403,377.546,660.522,380.427,656.967,380.427z"/>
	</g>
	<g>
		<path fill="#333333" d="M656.956,436.413H631.61c-3.553,0-6.434-2.881-6.434-6.437c0-3.552,2.881-6.436,6.434-6.436h25.346
			c3.556,0,6.437,2.884,6.437,6.436C663.393,433.532,660.512,436.413,656.956,436.413z"/>
	</g>
	<g>
		<g>
			<path fill="#333333" d="M682.791,408.42c-3.555,0-6.434-2.881-6.434-6.437c0-12.492-8.255-21.557-19.63-21.557
				c-3.555,0-6.436-2.881-6.436-6.437c0-3.555,2.881-6.437,6.436-6.437c18.529,0,32.5,14.803,32.5,34.43
				C689.228,405.539,686.347,408.42,682.791,408.42z"/>
		</g>
		<g>
			<path fill="#333333" d="M656.728,436.413c-3.555,0-6.436-2.881-6.436-6.437c0-3.552,2.881-6.436,6.436-6.436
				c11.375,0,19.63-9.065,19.63-21.558c0-3.555,2.879-6.437,6.434-6.437c3.556,0,6.437,2.882,6.437,6.437
				C689.228,421.61,675.257,436.413,656.728,436.413z"/>
		</g>
	</g>
	<g>
		<g>
			<path fill="#333333" d="M547.878,416.854c-2.009,0-3.99-0.922-5.273-2.664l-27.563-37.463c-2.14-2.911-1.517-7.005,1.395-9.144
				c2.908-2.14,7.001-1.517,9.141,1.392l27.563,37.463c2.14,2.911,1.517,7.005-1.395,9.141
				C550.582,416.438,549.223,416.854,547.878,416.854z"/>
		</g>
	</g>
	<g>
		<g>
			<path fill="#333333" d="M547.869,416.854c-1.383,0-2.777-0.438-3.96-1.341c-2.873-2.188-3.428-6.289-1.239-9.159l28.537-37.466
				c2.188-2.87,6.292-3.428,9.162-1.239c2.876,2.188,3.428,6.292,1.24,9.162l-28.535,37.463
				C551.786,415.968,549.837,416.854,547.869,416.854z"/>
		</g>
	</g>
	<g>
		<g>
			<path fill="#333333" d="M576.409,436.274c-3.612,0-6.543-2.927-6.543-6.539v-56.884c0-3.612,2.931-6.54,6.543-6.54
				c3.609,0,6.54,2.928,6.54,6.54v56.884C582.949,433.348,580.019,436.274,576.409,436.274z"/>
		</g>
	</g>
	<g>
		<g>
			<path fill="#333333" d="M520.309,436.274c-3.61,0-6.537-2.927-6.537-6.539v-56.884c0-3.612,2.927-6.54,6.537-6.54
				c3.612,0,6.539,2.928,6.539,6.54v56.884C526.848,433.348,523.921,436.274,520.309,436.274z"/>
		</g>
	</g>
	<g>
		<path fill="#333333" d="M430.03,435.729c-1.824,0-3.637-0.774-4.906-2.275l-47.479-55.968c-2.296-2.71-1.962-6.768,0.745-9.067
			c2.71-2.299,6.771-1.965,9.067,0.745l47.476,55.968c2.3,2.71,1.965,6.771-0.745,9.07
			C432.982,435.226,431.503,435.729,430.03,435.729z"/>
	</g>
	<g>
		<path fill="#333333" d="M430.03,435.729c-3.555,0-6.434-2.882-6.434-6.437v-55.968c0-3.553,2.878-6.434,6.434-6.434
			c3.55,0,6.428,2.881,6.428,6.434v55.968C436.458,432.847,433.58,435.729,430.03,435.729z"/>
	</g>
	<g>
		<path fill="#333333" d="M382.551,435.729c-3.552,0-6.431-2.882-6.431-6.437v-55.968c0-3.553,2.878-6.434,6.431-6.434
			c3.555,0,6.434,2.881,6.434,6.434v55.968C388.985,432.847,386.106,435.729,382.551,435.729z"/>
	</g>
	<g>
		<g>
			<path fill="#333333" d="M708.208,436.274c-3.582,0-6.485-2.902-6.485-6.485v-56.413c0-3.582,2.903-6.485,6.485-6.485
				c3.58,0,6.485,2.903,6.485,6.485v56.413C714.693,433.372,711.788,436.274,708.208,436.274z"/>
		</g>
	</g>
	<g>
		<g>
			<path fill="#333333" d="M603.837,436.274c-3.579,0-6.485-2.902-6.485-6.485v-56.413c0-3.582,2.906-6.485,6.485-6.485
				c3.583,0,6.485,2.903,6.485,6.485v56.413C610.322,433.372,607.42,436.274,603.837,436.274z"/>
		</g>
	</g>
	<g>
		<g>
			<path fill="#333333" d="M597.08,358.508c-1.864-2.546-1.31-6.123,1.236-7.985l10.245-7.312c2.547-1.864,6.123-1.313,7.985,1.237
				c1.864,2.546,1.31,6.123-1.236,7.985l-10.245,7.312C602.519,361.609,598.944,361.055,597.08,358.508z"/>
		</g>
	</g>
	<g>
		<path fill="#333333" d="M496.009,423.101c-3.629,0-6.569-2.944-6.569-6.572c0-1.718,0-6.287-16.371-9.707
			c-3.55-0.739-5.828-4.221-5.085-7.771c0.739-3.553,4.218-5.833,7.771-5.091c7.995,1.669,13.691,3.775,17.926,6.624
			c7.354,4.955,8.901,11.405,8.901,15.944C502.581,420.156,499.638,423.101,496.009,423.101z"/>
	</g>
	<g>
		<path fill="#333333" d="M476.183,437.992c-0.057,0-0.114,0-0.171,0c-11.299-0.29-19.2-4.512-25.441-8.603
			c-3.036-1.989-3.884-6.063-1.895-9.098c1.992-3.033,6.067-3.881,9.097-1.892c4.931,3.234,10.595,6.252,18.576,6.456
			c3.625,0.092,6.494,3.109,6.401,6.737C482.655,435.163,479.735,437.992,476.183,437.992z"/>
	</g>
	<g>
		<path fill="#333333" d="M477.121,438.006c-0.364,0-0.734-0.005-1.109-0.014c-3.628-0.092-6.493-3.109-6.401-6.735
			c0.095-3.628,3.118-6.507,6.738-6.4c4.966,0.125,8.75-0.94,10.957-3.091c1.764-1.721,2.134-3.797,2.134-5.237
			c0-3.629,2.94-6.567,6.569-6.567s6.572,2.938,6.572,6.567c0,5.609-2.169,10.81-6.104,14.647
			C493.242,434.326,487.289,438.006,477.121,438.006z"/>
	</g>
	<g>
		<path fill="#333333" d="M474.419,406.96c-0.462,0-0.93-0.046-1.397-0.149c-6.083-1.315-10.582-3-14.161-5.294
			c-7.627-4.891-9.095-11.4-8.98-15.999c0.16-6.67,2.324-11.94,6.423-15.664c4.765-4.327,11.894-6.187,21.179-5.518
			c3.618,0.258,6.342,3.403,6.08,7.023c-0.258,3.617-3.403,6.341-7.023,6.083c-5.482-0.395-9.426,0.345-11.399,2.137
			c-0.5,0.453-2.017,1.832-2.125,6.259c-0.033,1.318-0.128,5.333,12.791,8.136c3.547,0.767,5.795,4.265,5.031,7.812
			C480.165,404.862,477.444,406.96,474.419,406.96z"/>
	</g>
	<g>
		<path fill="#333333" d="M492.715,382.666c-1.017,0-2.047-0.233-3.012-0.733c-5.281-2.734-9.709-4.243-13.164-4.49
			c-3.618-0.261-6.341-3.406-6.08-7.023c0.258-3.621,3.397-6.347,7.023-6.083c5.313,0.38,11.288,2.321,18.258,5.925
			c3.221,1.667,4.481,5.632,2.815,8.854C497.387,381.373,495.093,382.666,492.715,382.666z"/>
	</g>
	<g>
		<g>
			<g>
				<path fill="#333333" d="M240.949,436.114c-3.572,0-6.469-2.895-6.469-6.466v-56.289c0-3.574,2.897-6.469,6.469-6.469
					c3.574,0,6.472,2.895,6.472,6.469v56.289C247.42,433.22,244.523,436.114,240.949,436.114z"/>
			</g>
		</g>
		<g>
			<path fill="#333333" d="M266.425,412.739h-25.476c-3.572,0-6.469-2.897-6.469-6.472c0-3.572,2.897-6.47,6.469-6.47h25.476
				c3.572,0,6.469,2.897,6.469,6.47C272.894,409.842,269.997,412.739,266.425,412.739z"/>
		</g>
		<g>
			<path fill="#333333" d="M268.042,379.829h-27.093c-3.572,0-6.469-2.896-6.469-6.47s2.897-6.469,6.469-6.469h27.093
				c3.572,0,6.469,2.895,6.469,6.469S271.614,379.829,268.042,379.829z"/>
		</g>
	</g>
	<g>
		<path fill="#333333" d="M284.5,436.114c-1.935,0-3.849-0.864-5.121-2.512l-18.075-23.378c-2.186-2.826-1.664-6.89,1.163-9.075
			c2.827-2.188,6.891-1.664,9.076,1.163l18.07,23.378c2.188,2.824,1.666,6.891-1.161,9.073
			C287.275,435.674,285.881,436.114,284.5,436.114z"/>
	</g>
	<g>
		<path fill="#333333" d="M268.042,412.739h-1.617c-3.574,0-6.469-2.897-6.469-6.472c0-3.572,2.895-6.47,6.469-6.47h1.617
			c5.507,0,9.984-4.479,9.984-9.983c0-5.507-4.477-9.985-9.984-9.985c-3.574,0-6.472-2.896-6.472-6.47s2.897-6.469,6.472-6.469
			c12.639,0,22.924,10.282,22.924,22.924C290.966,402.454,280.681,412.739,268.042,412.739z"/>
	</g>
	<g>
		<g>
			<path fill="#333333" d="M194.905,436.476c-3.588,0-6.502-2.911-6.502-6.504v-56.576c0-3.594,2.914-6.505,6.502-6.505
				c3.593,0,6.504,2.911,6.504,6.505v56.576C201.409,433.564,198.498,436.476,194.905,436.476z"/>
		</g>
	</g>
	<g>
		<g>
			<path fill="#333333" d="M218.644,379.896h-47.476c-3.591,0-6.501-2.911-6.501-6.501c0-3.594,2.911-6.505,6.501-6.505h47.476
				c3.591,0,6.502,2.911,6.502,6.505C225.146,376.985,222.235,379.896,218.644,379.896z"/>
		</g>
	</g>
</g>
<path fill="#F9C606" d="M714.788,499.536"/>
<g opacity="0.5">
	<path fill="#9DA39E" d="M552.167,81.273c86.98,31.618,74.45,86.612,50.944,151.249c-23.5,64.645-48.925,121.974-135.903,90.355
		c-86.98-31.622-156.677-110.438-115.395-181.717C408.531,43.211,465.191,49.649,552.167,81.273z"/>
</g>
<g opacity="0.8">
	<path fill="#0089C4" d="M414.858,177.025c25.724-12.113,37.177,7.158,48.862,31.972c11.685,24.813,21.117,47.952-4.61,60.065
		c-25.724,12.113-59.952,6.078-69.713-25.066C375.982,201.196,389.134,189.138,414.858,177.025z"/>
</g>
<g opacity="0.8">
	<path fill="#80379B" d="M507.21,214.308c-29.475,0-31.709-23.132-31.709-51.564s1.375-54.297,30.85-54.297
		c29.476,0,58.912,20.777,54.313,54.297C554.344,208.808,536.685,214.308,507.21,214.308z"/>
</g>
<g opacity="0.8">
	<path fill="#F9C606" d="M490.222,91.646c27.703,10.07,21.897,32.575,12.183,59.294c-9.714,26.721-19.842,50.56-47.542,40.49
		c-27.703-10.07-48.27-39.655-32.495-69.588C444.045,80.709,462.522,81.574,490.222,91.646z"/>
</g>
<g opacity="0.8">
	<path fill="#333333" d="M451.832,263.778c0-29.475,23.13-31.708,51.564-31.708c28.431,0,54.296,1.374,54.296,30.849
		c0,29.474-20.779,58.913-54.296,54.314C457.331,310.912,451.832,293.252,451.832,263.778z"/>
</g>
<g opacity="0.8">
	<path fill="#D00F73" d="M427.998,120.375c29.475,0,31.708,23.132,31.708,51.564c0,28.432-1.375,54.297-30.85,54.297
		s-58.914-20.777-54.315-54.297C380.861,125.875,398.522,120.375,427.998,120.375z"/>
</g>
<g opacity="0.8">
	<path fill="#A8B400" d="M470.818,145.958c29.475,0,31.708,23.132,31.708,51.564c0,28.433-1.375,54.297-30.85,54.297
		c-29.475,0-58.914-20.777-54.315-54.297C423.681,151.458,441.343,145.958,470.818,145.958z"/>
</g>
<g opacity="0.8">
	<path fill="#FF6319" d="M524.785,261.931c-29.475,0-31.709-23.132-31.709-51.564c0-28.432,1.375-54.297,30.85-54.297
		s58.912,20.777,54.313,54.297C571.919,256.431,554.26,261.931,524.785,261.931z"/>
</g>
</svg>
